<svg id="Layer_1" data-name="Layer 1" xmlns="http://www.w3.org/2000/svg" viewBox="0 0 378.56 72.37"><defs><style>.cls-1{fill:#fff;}.cls-2{fill:#fcdd00;}</style></defs><title>Blackbox Elements 2019</title><path class="cls-1" d="M36.17,59.55H10.06V13.49H34.15a11.8,11.8,0,0,1,2.71.33,13.82,13.82,0,0,1,2.73.95,16.05,16.05,0,0,1,2.49,1.45,11,11,0,0,1,2,1.84,13.46,13.46,0,0,1,2.28,4,12.92,12.92,0,0,1,.8,4.51,12.7,12.7,0,0,1-1.07,5.14A12.56,12.56,0,0,1,43,36a11.71,11.71,0,0,1,2.4,2,12.68,12.68,0,0,1,1.87,2.61,15.26,15.26,0,0,1,1.22,3,11.48,11.48,0,0,1,.44,3.06,12.65,12.65,0,0,1-1,5,12.44,12.44,0,0,1-2.73,4.09,13.36,13.36,0,0,1-4.06,2.79,12.09,12.09,0,0,1-5,1m-5.75-36.8H22.17v9.38h8.25a4.66,4.66,0,0,0,3.29-8,4.51,4.51,0,0,0-3.29-1.4m.41,17.75H22.17v9.32h8.66a4.68,4.68,0,0,0,4.69-4.69,4.66,4.66,0,0,0-4.69-4.63"/><polygon class="cls-1" points="55.16 59.55 55.16 13.49 67.92 13.49 67.92 48.15 92.14 48.15 92.14 59.55 55.16 59.55"/><path class="cls-1" d="M128.2,59.55l-2.37-6.35H111.64l-2.37,6.35h-13l17-46.06h10.87l17,46.06Zm-9.44-29.26-3.68,12.17h7.3Z"/><path class="cls-1" d="M165.27,61a23.61,23.61,0,0,1-9.52-1.92A24.4,24.4,0,0,1,148,53.76,24.85,24.85,0,0,1,142.84,46a24.25,24.25,0,0,1,0-18.82A25,25,0,0,1,148,19.4a24.21,24.21,0,0,1,7.72-5.28,23.45,23.45,0,0,1,9.52-1.93,23.9,23.9,0,0,1,8.9,1.69,26.75,26.75,0,0,1,7.9,4.9l-9.5,8.31a12.3,12.3,0,0,0-7.24-2.44A11.22,11.22,0,0,0,157,28.21,12.61,12.61,0,0,0,154.59,32a12.18,12.18,0,0,0,0,9.14A12.12,12.12,0,0,0,157,45a11.82,11.82,0,0,0,3.65,2.61,10.85,10.85,0,0,0,4.6,1,11,11,0,0,0,5.31-1.31,13.3,13.3,0,0,0,4.31-3.68l9.79,8a25.9,25.9,0,0,1-8.7,7A24,24,0,0,1,165.27,61"/><polygon class="cls-1" points="212.16 35.27 230.38 59.55 215.42 59.55 202.78 44.06 202.78 59.55 190.14 59.55 190.14 13.49 202.78 13.49 202.78 28.98 215.42 13.49 230.97 13.49 212.16 35.27"/><path class="cls-1" d="M262,59.55H235.84V13.49h24.09a11.73,11.73,0,0,1,2.71.33,13.82,13.82,0,0,1,2.73.95,16.05,16.05,0,0,1,2.49,1.45,11,11,0,0,1,2,1.84,13.25,13.25,0,0,1,2.28,4,12.92,12.92,0,0,1,.8,4.51,12.7,12.7,0,0,1-1.07,5.14,12.56,12.56,0,0,1-3.08,4.3,11.71,11.71,0,0,1,2.4,2,12.68,12.68,0,0,1,1.87,2.61,15.26,15.26,0,0,1,1.22,3,11.48,11.48,0,0,1,.44,3.06,12.65,12.65,0,0,1-1,5A12.44,12.44,0,0,1,271,55.72a13.36,13.36,0,0,1-4.06,2.79,12.12,12.12,0,0,1-5,1m-5.75-36.8H248v9.38h8.25a4.65,4.65,0,0,0,3.29-8,4.51,4.51,0,0,0-3.29-1.4m.41,17.75H248v9.32h8.66a4.68,4.68,0,0,0,4.69-4.69,4.66,4.66,0,0,0-4.69-4.63"/><path class="cls-2" d="M302.82,61a24,24,0,0,1-9.55-1.9,24.35,24.35,0,0,1-13-12.93,24.35,24.35,0,0,1,0-19,24.43,24.43,0,0,1,5.25-7.74,25,25,0,0,1,7.78-5.22,24.54,24.54,0,0,1,19.08,0,24.84,24.84,0,0,1,7.8,5.22,24.43,24.43,0,0,1,5.25,7.74,24.35,24.35,0,0,1,0,19A24.5,24.5,0,0,1,302.82,61"/><polygon class="cls-1" points="356.99 59.55 349.03 47.62 348.44 47.62 340.49 59.55 325.94 59.55 341.44 36.17 326.36 13.49 340.96 13.49 348.44 24.77 349.03 24.77 356.51 13.49 371.11 13.49 356.04 36.17 371.59 59.55 356.99 59.55"/></svg>